<?xml version="1.0" encoding="UTF-8" standalone="no"?>
<svg
   xmlns:dc="http://purl.org/dc/elements/1.1/"
   xmlns:cc="http://creativecommons.org/ns#"
   xmlns:rdf="http://www.w3.org/1999/02/22-rdf-syntax-ns#"
   xmlns:svg="http://www.w3.org/2000/svg"
   xmlns="http://www.w3.org/2000/svg"
   xmlns:sodipodi="http://sodipodi.sourceforge.net/DTD/sodipodi-0.dtd"
   xmlns:inkscape="http://www.inkscape.org/namespaces/inkscape"
   width="210mm"
   height="297mm"
   viewBox="0 0 210 297"
   version="1.1"
   id="svg931"
   inkscape:version="1.0.1 (3bc2e813f5, 2020-09-07)"
   sodipodi:docname="addbutton.svg">
  <defs
     id="defs925" />
  <sodipodi:namedview
     id="base"
     pagecolor="#ffffff"
     bordercolor="#666666"
     borderopacity="1.0"
     inkscape:pageopacity="0.0"
     inkscape:pageshadow="2"
     inkscape:zoom="1.979899"
     inkscape:cx="194.0253"
     inkscape:cy="139.43818"
     inkscape:document-units="mm"
     inkscape:current-layer="layer1"
     inkscape:document-rotation="0"
     showgrid="false"
     inkscape:window-width="1366"
     inkscape:window-height="745"
     inkscape:window-x="-8"
     inkscape:window-y="-8"
     inkscape:window-maximized="1" />
  <metadata
     id="metadata928">
    <rdf:RDF>
      <cc:Work
         rdf:about="">
        <dc:format>image/svg+xml</dc:format>
        <dc:type
           rdf:resource="http://purl.org/dc/dcmitype/StillImage" />
        <dc:title></dc:title>
      </cc:Work>
    </rdf:RDF>
  </metadata>
  <g
     inkscape:label="Layer 1"
     inkscape:groupmode="layer"
     id="layer1">
    <path
       id="rect933"
       style="fill:#ff9a2d;stroke:#ff9a2d;stroke-width:0.264583"
       d="m 30.134851,12.895443 c -0.92542,0 -1.670701,0.745279 -1.670701,1.6707 v 4.677233 h -4.677233 c -0.925421,0 -1.670183,0.744761 -1.670183,1.670182 0,0.925421 0.744762,1.670699 1.670183,1.670699 h 4.677233 v 4.543393 c 0,0.92542 0.745281,1.670698 1.670701,1.670698 0.92542,0 1.670182,-0.745278 1.670182,-1.670698 v -4.543393 h 4.543906 c 0.925423,0 1.670183,-0.745278 1.670183,-1.670699 0,-0.925421 -0.74476,-1.670182 -1.670183,-1.670182 h -4.543906 v -4.677234 c 0,-0.925421 -0.744762,-1.670699 -1.670182,-1.670699 z"
       inkscape:export-xdpi="96"
       inkscape:export-ydpi="96" />
    <path
       id="path950"
       style="fill:#ff9a2d;stroke:#ff9a2d;stroke-width:0.264583"
       d="M 30.06793,6.815195 A 14.566189,14.03165 0 0 0 15.501892,20.846896 14.566189,14.03165 0 0 0 30.06793,34.878597 14.566189,14.03165 0 0 0 44.633964,20.846896 14.566189,14.03165 0 0 0 30.06793,6.815195 Z m 0.101801,2.8282511 A 11.621455,11.19498 0 0 1 41.791244,20.838628 11.621455,11.19498 0 0 1 30.169731,32.033294 11.621455,11.19498 0 0 1 18.548736,20.838628 11.621455,11.19498 0 0 1 30.169731,9.6434461 Z"
       inkscape:export-xdpi="96"
       inkscape:export-ydpi="96" />
  </g>
</svg>
