<?xml version="1.0" encoding="UTF-8" standalone="no"?>
<svg
   xmlns:dc="http://purl.org/dc/elements/1.1/"
   xmlns:cc="http://creativecommons.org/ns#"
   xmlns:rdf="http://www.w3.org/1999/02/22-rdf-syntax-ns#"
   xmlns:svg="http://www.w3.org/2000/svg"
   xmlns="http://www.w3.org/2000/svg"
   xmlns:sodipodi="http://sodipodi.sourceforge.net/DTD/sodipodi-0.dtd"
   xmlns:inkscape="http://www.inkscape.org/namespaces/inkscape"
   width="210mm"
   height="297mm"
   viewBox="0 0 210 297"
   version="1.1"
   id="svg8"
   inkscape:version="1.0.1 (3bc2e813f5, 2020-09-07)"
   sodipodi:docname="chain.svg">
  <defs
     id="defs2" />
  <sodipodi:namedview
     id="base"
     pagecolor="#ffffff"
     bordercolor="#666666"
     borderopacity="1.0"
     inkscape:pageopacity="0.0"
     inkscape:pageshadow="2"
     inkscape:zoom="1.4"
     inkscape:cx="253.87391"
     inkscape:cy="159.18186"
     inkscape:document-units="mm"
     inkscape:current-layer="layer1"
     inkscape:document-rotation="0"
     showgrid="false"
     inkscape:window-width="1366"
     inkscape:window-height="745"
     inkscape:window-x="-8"
     inkscape:window-y="-8"
     inkscape:window-maximized="1" />
  <metadata
     id="metadata5">
    <rdf:RDF>
      <cc:Work
         rdf:about="">
        <dc:format>image/svg+xml</dc:format>
        <dc:type
           rdf:resource="http://purl.org/dc/dcmitype/StillImage" />
        <dc:title></dc:title>
      </cc:Work>
    </rdf:RDF>
  </metadata>
  <g
     inkscape:label="Layer 1"
     inkscape:groupmode="layer"
     id="layer1">
    <path
       id="path60"
       style="fill:#ff9a2d;stroke-width:0.264583;stroke:#ff9a2d;stroke-opacity:1;fill-opacity:1"
       d="M 35.704649,18.143079 A 22.39509,12.378719 0 0 0 13.418154,30.52165 22.39509,12.378719 0 0 0 35.81317,42.900224 22.39509,12.378719 0 0 0 58.208186,30.52165 22.39509,12.378719 0 0 0 35.81317,18.143079 a 22.39509,12.378719 0 0 0 -0.108521,0 z m 0.08061,4.441072 a 17.10342,7.9374988 0 0 1 0.122473,0 17.10342,7.9374988 0 0 1 17.10335,7.937499 17.10342,7.9374988 0 0 1 -17.10335,7.9375 17.10342,7.9374988 0 0 1 -17.103349,-7.9375 17.10342,7.9374988 0 0 1 16.980876,-7.937499 z"
       inkscape:export-xdpi="96"
       inkscape:export-ydpi="96" />
    <rect
       style="fill:#ff9a2d;stroke-width:0.258876;stroke:#ff9a2d;stroke-opacity:1;fill-opacity:1"
       id="rect82"
       width="40.632439"
       height="6.8035712"
       x="46.491074"
       y="26.836309"
       ry="3.4017856"
       inkscape:export-xdpi="96"
       inkscape:export-ydpi="96" />
  </g>
</svg>
